<svg width="88" height="76" viewBox="0 0 88 76" fill="none" xmlns="http://www.w3.org/2000/svg">
<path d="M8.80078 0.550293C8.80078 0.550293 20.6797 4.95027 28.6007 4.95027C36.5217 4.95027 40.4796 0.550293 48.4006 0.550293C56.3216 0.550293 60.2795 4.95027 68.2005 4.95027C76.1215 4.95027 88.0004 0.550293 88.0004 0.550293V59.95H8.80078V0.550293Z" fill="#8EBE0E"/>
<path d="M0 9.35025L8.79996 0.550293V75.35H0V9.35025Z" fill="#6E9E00"/>
<path d="M79.1987 9.35025L87.9987 0.550293V75.35H79.1987V9.35025Z" fill="#6E9E00"/>
<path d="M0 9.35034C0 9.35034 11.8789 13.7503 19.7999 13.7503C27.7209 13.7503 31.6789 9.35034 39.5998 9.35034C47.5208 9.35034 51.4788 13.7503 59.3997 13.7503C67.3207 13.7503 79.1996 9.35034 79.1996 9.35034V75.35H0V9.35034Z" fill="#9FCF14"/>
<path d="M40.6814 55.3493C48.2758 55.19 52.846 53.1918 59.456 47.1407C67.363 39.9022 54.2668 41.8389 41.5214 41.7613C28.4378 41.6817 13.0139 38.6627 20.8919 47.1407C27.2999 54.0368 32.7037 55.5166 40.6814 55.3493Z" fill="#131624"/>
<circle cx="12.4345" cy="37.185" r="2.86955" fill="#131624"/>
<circle cx="66.3095" cy="37.4235" r="3.09859" fill="#131624"/>
</svg>
