<svg width="16" height="16" viewBox="0 0 16 16" fill="none" xmlns="http://www.w3.org/2000/svg">
<path d="M8 11.4519C8 10.8497 8.27139 10.2795 8.73881 9.89971L12.7388 6.64971C14.0458 5.58775 16 6.51787 16 8.20194V14C16 15.1046 15.1046 16 14 16H10C8.89543 16 8 15.1046 8 14V11.4519Z" fill="#D9D9D9"/>
<path fill-rule="evenodd" clip-rule="evenodd" d="M2 0C0.895431 0 0 0.895431 0 2V10C0 11.1046 0.895431 12 2 12H14C15.1046 12 16 11.1046 16 10V2C16 0.895431 15.1046 0 14 0H2ZM10 4C8.89543 4 8 4.89543 8 6C8 7.10457 8.89543 8 10 8C11.1046 8 12 7.10457 12 6C12 4.89543 11.1046 4 10 4Z" fill="#D9D9D9"/>
<path fill-rule="evenodd" clip-rule="evenodd" d="M10 10H5V12H6C7.10457 12 8 12.8954 8 14H10V10Z" fill="#D9D9D9"/>
</svg>
