<svg width="468" height="186" viewBox="0 0 468 186" fill="none" xmlns="http://www.w3.org/2000/svg">
<g clip-path="url(#clip0_107_2)">
<path d="M115 84C115 91.732 121.268 98 129 98L172 98V98C172 82.536 159.464 70 144 70L129 70C121.268 70 115 76.268 115 84V84Z" fill="#D9D9D9"/>
<path d="M122.839 93.4348L122.839 76.3468L127.639 76.3468L127.639 93.4348L122.839 93.4348ZM133.159 93.4348L133.159 76.3468L137.959 76.3468L137.959 93.4348L133.159 93.4348ZM125.455 86.7148L125.455 82.7308L135.031 82.7308L135.031 86.7148L125.455 86.7148ZM140.792 93.4348L140.792 76.3468L145.592 76.3468L145.592 93.4348L140.792 93.4348ZM148.985 86.6428L148.145 75.8668L153.305 75.8668L152.465 86.6428L148.985 86.6428ZM150.737 93.7228C149.985 93.7228 149.361 93.4668 148.865 92.9548C148.369 92.4428 148.121 91.8188 148.121 91.0828C148.121 90.3308 148.369 89.6988 148.865 89.1868C149.361 88.6748 149.985 88.4188 150.737 88.4188C151.489 88.4188 152.105 88.6748 152.585 89.1868C153.081 89.6988 153.329 90.3308 153.329 91.0828C153.329 91.8188 153.081 92.4428 152.585 92.9548C152.105 93.4668 151.489 93.7228 150.737 93.7228Z" fill="#1A1D2B"/>
<path d="M215.689 70C215.689 70 234.167 76.8441 246.488 76.8441C258.809 76.8441 264.965 70 277.286 70C289.607 70 295.764 76.8441 308.085 76.8441C320.406 76.8441 338.883 70 338.883 70V162.395H215.689V70Z" fill="#8EBE0E"/>
<path d="M202 83.6882L215.688 70V186.35H202V83.6882Z" fill="#6E9E00"/>
<path d="M325.193 83.6882L338.882 70V186.35H325.193V83.6882Z" fill="#6E9E00"/>
<path d="M202 83.6882C202 83.6882 220.478 90.5323 232.798 90.5323C245.119 90.5323 251.276 83.6882 263.597 83.6882C275.918 83.6882 282.074 90.5323 294.395 90.5323C306.716 90.5323 325.194 83.6882 325.194 83.6882V186.35H202V83.6882Z" fill="#9FCF14"/>
<path d="M265.28 155.239C277.092 154.991 284.201 151.883 294.483 142.471C306.782 131.211 286.411 134.224 266.586 134.103C246.235 133.979 222.243 129.283 234.497 142.471C244.465 153.197 252.87 155.499 265.28 155.239Z" fill="#131624"/>
<circle cx="221.343" cy="126.985" r="4.46355" fill="#131624"/>
<circle cx="305.144" cy="127.355" r="4.81981" fill="#131624"/>
</g>
<defs>
<clipPath id="clip0_107_2">
<rect width="468" height="186" fill="white"/>
</clipPath>
</defs>
</svg>
